<?xml version="1.0" encoding="utf-8"?>
<svg width="20" height="18" viewBox="0 0 20 20" fill="none" xmlns="http://www.w3.org/2000/svg">
  <path d="M 18.125 1.245 L 1.875 1.245 C 0.84 1.245 0 2.085 0 3.12 L 0 16.87 C 0 17.905 0.84 18.745 1.875 18.745 L 18.125 18.745 C 19.16 18.745 20 17.905 20 16.87 L 20 3.12 C 20 2.085 19.16 1.245 18.125 1.245 Z M 15 4.37 C 15 3.678 15.559 3.12 16.25 3.12 C 16.941 3.12 17.5 3.678 17.5 4.37 C 17.5 5.061 16.941 5.62 16.25 5.62 C 15.559 5.62 15 5.061 15 4.37 Z M 11.25 4.37 C 11.25 3.678 11.809 3.12 12.5 3.12 C 13.191 3.12 13.75 3.678 13.75 4.37 C 13.75 5.061 13.191 5.62 12.5 5.62 C 11.809 5.62 11.25 5.061 11.25 4.37 Z M 7.5 4.37 C 7.5 3.678 8.059 3.12 8.75 3.12 C 9.441 3.12 10 3.678 10 4.37 C 10 5.061 9.441 5.62 8.75 5.62 C 8.059 5.62 7.5 5.061 7.5 4.37 Z M 18.125 16.635 C 18.125 16.764 18.02 16.87 17.891 16.87 L 2.109 16.87 C 1.98 16.87 1.875 16.764 1.875 16.635 L 1.875 7.495 L 18.125 7.495 L 18.125 16.635 Z" />
</svg>
