<svg width="14" height="15" viewBox="0 0 14 15" fill="none" xmlns="http://www.w3.org/2000/svg">
<path d="M13.9969 5C13.9969 4.66875 13.9156 4.34375 13.7594 4.05312L12.225 1.18125C12.0906 0.775 11.7094 0.5 11.2781 0.5H2.72187C2.29062 0.5 1.90938 0.775 1.77188 1.18438L0.2375 4.05625C0.08125 4.34688 0 4.67188 0 5.00313C0.003125 6.89375 0 13.5 0 13.5C0 14.0531 0.446875 14.5 1 14.5H13C13.5531 14.5 14 14.0531 14 13.5C14 13.5 13.9969 6.89375 13.9969 5ZM10.9625 2L12.3 4.5H8.7L7.95 2H10.9625ZM3.0375 2H6.05L5.3 4.5H1.7L3.0375 2ZM1.5 13C1.5 11.6781 1.50312 8.06563 1.50312 6H5V8C5 8.275 5.225 8.5 5.5 8.5H8.5C8.775 8.5 9 8.275 9 8V6H12.4969C12.4969 8.06563 12.4969 11.6812 12.5 13H1.5Z" fill="#979797"/>
</svg>
