<svg width="16" height="17" viewBox="0 0 16 17" fill="none" xmlns="http://www.w3.org/2000/svg">
<path d="M15.3629 2.8009L13.6797 1.11843C12.8554 0.294087 11.5211 0.293962 10.6966 1.1184L0.778556 10.9716L0.0103995 15.6278C-0.0731942 16.1345 0.36565 16.5734 0.872493 16.4899L5.52859 15.7217L15.3825 5.80362C16.2053 4.98077 16.2132 3.65115 15.3629 2.8009ZM6.26396 10.2363C6.39821 10.3705 6.57418 10.4376 6.75012 10.4376C6.92606 10.4376 7.10202 10.3705 7.23627 10.2363L10.9559 6.51659L11.8487 7.40937L6.56262 12.73V11.4376H5.06262V9.93762H3.77024L9.09084 4.65152L9.98362 5.54431L6.26393 9.26396C5.99552 9.53246 5.99552 9.96777 6.26396 10.2363ZM2.56674 14.8167L1.68352 13.9335L2.0629 11.6339L2.6379 11.0626H3.93762V12.5626H5.43762V13.8623L4.86631 14.4373L2.56674 14.8167ZM14.41 4.83134L14.4084 4.83293L14.4068 4.83452L12.9059 6.34527L10.155 3.59434L11.6657 2.0934L11.6673 2.09184L11.6688 2.09027C11.9547 1.80446 12.4181 1.80093 12.7075 2.09024L14.3904 3.77318C14.6991 4.08184 14.701 4.54034 14.41 4.83134Z" fill="#979797"/>
</svg>
