<svg width="18" height="17" viewBox="0 0 18 17" fill="none" xmlns="http://www.w3.org/2000/svg">
<path d="M17.8538 15.2934L15.3075 12.7478C15.8671 11.9243 16.0995 10.9216 15.9591 9.93589C15.8188 8.95016 15.3159 8.05219 14.5487 7.41754C13.7815 6.7829 12.8051 6.4572 11.8106 6.50412C10.816 6.55103 9.87467 6.96719 9.17062 7.67124C8.46657 8.3753 8.05041 9.31662 8.00349 10.3112C7.95657 11.3058 8.28227 12.2821 8.91692 13.0493C9.55157 13.8165 10.4495 14.3194 11.4353 14.4597C12.421 14.6001 13.4236 14.3677 14.2472 13.8081L16.7934 16.3538C16.8872 16.4474 17.0143 16.5001 17.1469 16.5001C17.2794 16.5001 17.4066 16.4474 17.5003 16.3538L17.8538 16C17.9474 15.9063 17.9999 15.7792 17.9999 15.6467C17.9999 15.5142 17.9474 15.3872 17.8538 15.2934ZM12 13C11.5055 13 11.0222 12.8534 10.6111 12.5787C10.2 12.304 9.87952 11.9135 9.6903 11.4567C9.50108 10.9999 9.45157 10.4972 9.54804 10.0123C9.6445 9.52732 9.8826 9.08186 10.2322 8.73223C10.5819 8.3826 11.0273 8.1445 11.5123 8.04804C11.9972 7.95157 12.4999 8.00108 12.9567 8.1903C13.4135 8.37952 13.804 8.69995 14.0787 9.11107C14.3534 9.5222 14.5 10.0055 14.5 10.5C14.4993 11.1628 14.2356 11.7983 13.7669 12.2669C13.2983 12.7356 12.6628 12.9993 12 13ZM1.5 15V2.00281H6.5V5.25281C6.49971 5.35138 6.51891 5.44904 6.5565 5.54017C6.59409 5.63129 6.64932 5.71408 6.71903 5.78379C6.78873 5.85349 6.87152 5.90872 6.96265 5.94631C7.05377 5.9839 7.15143 6.0031 7.25 6.00281H9.85281C10.5056 5.69031 11.2278 5.50094 12 5.50094V4.625C11.9994 4.22651 11.8409 3.84449 11.5594 3.5625L8.9375 0.940625C8.65672 0.659164 8.27569 0.500681 7.87813 0.5H1.5C1.10209 0.501322 0.720906 0.660167 0.439806 0.941793C0.158707 1.22342 0.000576159 1.60491 0 2.00281V15C0 15.3978 0.158035 15.7794 0.43934 16.0607C0.720644 16.342 1.10218 16.5 1.5 16.5H10.5C10.8109 16.4993 11.1138 16.4018 11.3667 16.2209C11.6196 16.0401 11.8098 15.7849 11.9109 15.4909C11.199 15.4768 10.4985 15.3094 9.85719 15H1.5ZM8 2.125L10.3781 4.5025H8V2.125Z" fill="#979797"/>
</svg>
