<?xml version="1.0" encoding="utf-8"?>
<svg width="16" height="20" viewBox="0 0 20 20" fill="none" xmlns="http://www.w3.org/2000/svg">
  <path d="M 13.888 9.688 L 13.888 10.781 C 13.888 11.039 13.677 11.25 13.419 11.25 L 6.857 11.25 C 6.599 11.25 6.388 11.039 6.388 10.781 L 6.388 9.688 C 6.388 9.43 6.599 9.219 6.857 9.219 L 13.419 9.219 C 13.677 9.219 13.888 9.43 13.888 9.688 Z M 13.419 12.5 L 6.857 12.5 C 6.599 12.5 6.388 12.711 6.388 12.969 L 6.388 14.063 C 6.388 14.32 6.599 14.531 6.857 14.531 L 13.419 14.531 C 13.677 14.531 13.888 14.32 13.888 14.063 L 13.888 12.969 C 13.888 12.711 13.677 12.5 13.419 12.5 Z M 17.638 5.152 L 17.638 18.125 C 17.638 19.16 16.798 20 15.763 20 L 4.513 20 C 3.478 20 2.638 19.16 2.638 18.125 L 2.638 1.875 C 2.638 0.84 3.478 0 4.513 0 L 12.486 0 C 12.982 0 13.458 0.199 13.81 0.551 L 17.087 3.828 C 17.439 4.176 17.638 4.656 17.638 5.152 Z M 12.638 2.027 L 12.638 5 L 15.611 5 L 12.638 2.027 Z M 15.763 18.125 L 15.763 6.875 L 11.7 6.875 C 11.181 6.875 10.763 6.457 10.763 5.938 L 10.763 1.875 L 4.513 1.875 L 4.513 18.125 L 15.763 18.125 Z" />
</svg>