<?xml version="1.0" encoding="utf-8"?>
<!-- Generator: Adobe Illustrator 23.0.3, SVG Export Plug-In . SVG Version: 6.00 Build 0)  -->
<svg version="1.1" id="Warstwa_1" xmlns="http://www.w3.org/2000/svg" xmlns:xlink="http://www.w3.org/1999/xlink" x="0px" y="0px"
	 viewBox="0 0 566.9 378.3" style="enable-background:new 0 0 566.9 378.3;" xml:space="preserve">
<style type="text/css">
	.st0{fill:#F47B32;}
</style>
<g>
	<g>
		<path d="M125.3,213c0,2.1-0.4,4-1.2,5.7c-0.8,1.8-1.8,3.3-3.1,4.7c-1.3,1.4-2.9,2.4-4.7,3.2c-1.8,0.8-3.7,1.2-5.8,1.2H96.9
			l27.9,33.1h-13.2l-27.8-33.1H51.2c-0.7,0-1.4,0-2.2-0.1c-0.8-0.1-1.7-0.2-2.6-0.4v33.6h-10v-88.8h74.1c2.1,0,4,0.4,5.8,1.2
			c1.8,0.8,3.4,1.9,4.7,3.2c1.3,1.4,2.4,2.9,3.1,4.7c0.8,1.8,1.2,3.7,1.2,5.7V213z M110.4,217.7c1.3,0,2.4-0.5,3.3-1.4
			c0.9-0.9,1.4-2,1.4-3.3V187c0-1.3-0.5-2.5-1.4-3.4c-0.9-0.9-2-1.4-3.3-1.4H51.2c-1.3,0-2.5,0.5-3.4,1.4c-0.9,0.9-1.4,2.1-1.4,3.4
			V213c0,1.3,0.5,2.4,1.4,3.3c0.9,0.9,2.1,1.4,3.4,1.4H110.4z"/>
		<path d="M195.8,189.3c2.1,0,4,0.4,5.9,1.2c1.9,0.8,3.5,1.9,4.8,3.2c1.4,1.4,2.4,2.9,3.2,4.8c0.8,1.8,1.2,3.7,1.2,5.8v56.7h-58
			c-2.1,0-4-0.4-5.8-1.2c-1.8-0.8-3.4-1.9-4.8-3.2c-1.4-1.4-2.4-2.9-3.2-4.8c-0.8-1.8-1.2-3.7-1.2-5.8V220h62.7v-15.8
			c0-1.3-0.5-2.4-1.4-3.4c-0.9-0.9-2.1-1.4-3.5-1.4h-57.9v-10.1H195.8z M200.6,230.2H148V246c0,1.3,0.5,2.5,1.4,3.4
			c0.9,0.9,2.1,1.4,3.4,1.4h47.8V230.2z"/>
		<path d="M293,165.8v95.1H235c-2.1,0-4.1-0.4-5.9-1.2c-1.8-0.8-3.4-1.9-4.8-3.2c-1.4-1.4-2.4-2.9-3.2-4.8c-0.8-1.8-1.2-3.7-1.2-5.8
			v-41.7c0-2.1,0.4-4,1.2-5.8c0.8-1.8,1.9-3.4,3.2-4.8c1.4-1.4,2.9-2.4,4.8-3.2c1.8-0.8,3.8-1.2,5.9-1.2h47.8v-23.5H293z M278,250.8
			c1.3,0,2.4-0.5,3.4-1.4c0.9-0.9,1.4-2.1,1.4-3.4v-41.7c0-1.3-0.5-2.4-1.4-3.4c-0.9-0.9-2.1-1.4-3.4-1.4h-43
			c-1.3,0-2.5,0.5-3.4,1.4c-0.9,0.9-1.4,2.1-1.4,3.4V246c0,1.3,0.5,2.5,1.4,3.4c0.9,0.9,2.1,1.4,3.4,1.4H278z"/>
		<path d="M316.2,199.4V246c0,1.3,0.5,2.5,1.4,3.4c0.9,0.9,2.1,1.4,3.4,1.4h26.2v10.1H321c-2.1,0-4.1-0.4-5.9-1.2
			c-1.8-0.8-3.4-1.9-4.7-3.2c-1.3-1.4-2.4-2.9-3.2-4.8c-0.8-1.8-1.2-3.7-1.2-5.8v-80.1h10.1v23.5h31v10.1H316.2z"/>
		<path d="M428.2,189.3l-32.5,35.8l32.4,35.8h-13.2l-28.2-30.7h-19.7v30.7h-10.1v-95.1h10.1V220h19.7l28.2-30.7H428.2z"/>
		<path d="M493.5,189.3c2.1,0,4,0.4,5.9,1.2c1.8,0.8,3.5,1.9,4.8,3.2c1.4,1.4,2.4,2.9,3.2,4.8c0.8,1.8,1.2,3.7,1.2,5.8v25.9h-62.9
			V246c0,1.3,0.5,2.5,1.4,3.4c0.9,0.9,2.1,1.4,3.4,1.4h58v10.1h-58c-2.1,0-4-0.4-5.8-1.2c-1.8-0.8-3.4-1.9-4.8-3.2
			c-1.4-1.4-2.4-2.9-3.2-4.8c-0.8-1.8-1.2-3.7-1.2-5.8v-41.7c0-2.1,0.4-4,1.2-5.8c0.8-1.8,1.9-3.4,3.2-4.8c1.4-1.4,2.9-2.4,4.8-3.2
			c1.8-0.8,3.7-1.2,5.8-1.2H493.5z M498.3,220v-15.8c0-1.3-0.5-2.4-1.4-3.4c-0.9-0.9-2.1-1.4-3.5-1.4h-43c-1.3,0-2.5,0.5-3.4,1.4
			c-0.9,0.9-1.4,2.1-1.4,3.4V220H498.3z"/>
	</g>
	<g>
		<path d="M73.5,281.3v8.3H40.9v65.2h-8.3v-65.2H0v-8.3H73.5z"/>
		<path d="M126.3,295.6v8.4H93.1c-1.1,0-2,0.4-2.8,1.2c-0.8,0.8-1.2,1.7-1.2,2.8v46.8h-8.4V308c0-1.7,0.3-3.3,1-4.8
			c0.6-1.5,1.5-2.8,2.7-3.9c1.1-1.1,2.4-2,3.9-2.7c1.5-0.6,3.1-1,4.8-1H126.3z"/>
		<path d="M180.8,295.6c1.7,0,3.3,0.3,4.8,1c1.5,0.6,2.9,1.5,4,2.7c1.1,1.1,2,2.4,2.7,3.9c0.6,1.5,1,3.1,1,4.8v46.8h-48
			c-1.7,0-3.3-0.3-4.8-1c-1.5-0.6-2.8-1.5-3.9-2.7c-1.1-1.1-2-2.4-2.7-3.9c-0.6-1.5-1-3.1-1-4.8V321h51.8V308c0-1.1-0.4-2-1.1-2.8
			c-0.7-0.8-1.7-1.2-2.9-1.2H133v-8.4H180.8z M184.8,329.4h-43.5v13.1c0,1.1,0.4,2,1.2,2.8c0.8,0.8,1.7,1.2,2.8,1.2h39.5V329.4z"/>
		<path d="M250.4,295.6c1.7,0,3.3,0.3,4.8,1c1.5,0.6,2.8,1.5,3.9,2.7c1.1,1.1,2,2.4,2.7,3.9c0.6,1.5,1,3.1,1,4.8v46.8h-8.4V308
			c0-1.1-0.4-2-1.2-2.8c-0.8-0.8-1.7-1.2-2.8-1.2h-35.5c-1.2,0-2.1,0.4-2.9,1.2c-0.8,0.8-1.2,1.7-1.2,2.8v46.8h-8.4v-59.2H250.4z"/>
		<path d="M333.2,308.8h-8.5V308c0-1.1-0.4-2-1.2-2.8c-0.8-0.8-1.7-1.2-2.8-1.2h-35.5c-1.1,0-2,0.4-2.8,1.2
			c-0.8,0.8-1.2,1.7-1.2,2.8v9.1c0,1.1,0.4,2,1.2,2.8c0.8,0.8,1.7,1.2,2.8,1.2h35.5c1.7,0,3.3,0.3,4.8,1c1.5,0.6,2.9,1.5,4,2.7
			c1.1,1.1,2,2.4,2.7,3.9c0.6,1.5,1,3.1,1,4.8v9.1c0,1.7-0.3,3.3-1,4.8c-0.6,1.5-1.5,2.8-2.7,3.9s-2.5,2-4,2.7c-1.5,0.6-3.1,1-4.8,1
			h-35.5c-1.7,0-3.3-0.3-4.8-1c-1.5-0.6-2.8-1.5-3.9-2.7c-1.1-1.1-2-2.4-2.7-3.9c-0.6-1.5-1-3.1-1-4.8v-0.8h8.4v0.8
			c0,1.1,0.4,2,1.2,2.8c0.8,0.8,1.7,1.2,2.8,1.2h35.5c1.1,0,2-0.4,2.8-1.2c0.8-0.8,1.2-1.7,1.2-2.8v-9.1c0-1.1-0.4-2-1.2-2.8
			c-0.8-0.8-1.7-1.2-2.8-1.2h-35.5c-1.7,0-3.3-0.3-4.8-1c-1.5-0.6-2.8-1.5-3.9-2.7c-1.1-1.1-2-2.4-2.7-3.9c-0.6-1.5-1-3.1-1-4.8V308
			c0-1.7,0.3-3.3,1-4.8c0.6-1.5,1.5-2.8,2.7-3.9c1.1-1.1,2.4-2,3.9-2.7c1.5-0.6,3.1-1,4.8-1h35.5c1.7,0,3.3,0.3,4.8,1
			c1.5,0.6,2.9,1.5,4,2.7c1.1,1.1,2,2.4,2.7,3.9c0.6,1.5,1,3.1,1,4.8V308.8z"/>
		<path d="M391.4,295.6c1.7,0,3.3,0.3,4.8,1c1.5,0.6,2.8,1.5,3.9,2.7c1.1,1.1,2,2.4,2.7,3.9c0.6,1.5,1,3.1,1,4.8v34.5
			c0,1.7-0.3,3.3-1,4.8c-0.6,1.5-1.5,2.8-2.7,3.9c-1.1,1.1-2.4,2-3.9,2.7c-1.5,0.6-3.1,1-4.8,1h-39.6v23.5h-8.4v-82.7H391.4z
			 M395.4,308c0-1.1-0.4-2-1.2-2.8c-0.8-0.8-1.7-1.2-2.8-1.2h-35.5c-1.2,0-2.1,0.4-2.9,1.2c-0.8,0.8-1.2,1.7-1.2,2.8v34.5
			c0,1.1,0.4,2,1.2,2.8c0.8,0.8,1.7,1.2,2.9,1.2h35.5c1.1,0,2-0.4,2.8-1.2c0.8-0.8,1.2-1.7,1.2-2.8V308z"/>
		<path d="M458.8,295.6c1.7,0,3.3,0.3,4.8,1c1.5,0.6,2.9,1.5,4,2.7c1.1,1.1,2,2.4,2.7,3.9c0.6,1.5,1,3.1,1,4.8v34.5
			c0,1.7-0.3,3.3-1,4.8c-0.6,1.5-1.5,2.8-2.7,3.9c-1.1,1.1-2.5,2-4,2.7c-1.5,0.6-3.1,1-4.8,1h-35.5c-1.7,0-3.3-0.3-4.8-1
			c-1.5-0.6-2.8-1.5-3.9-2.7c-1.1-1.1-2-2.4-2.7-3.9c-0.6-1.5-1-3.1-1-4.8V308c0-1.7,0.3-3.3,1-4.8c0.6-1.5,1.5-2.8,2.7-3.9
			c1.1-1.1,2.4-2,3.9-2.7c1.5-0.6,3.1-1,4.8-1H458.8z M423.3,304c-1.1,0-2,0.4-2.8,1.2c-0.8,0.8-1.2,1.7-1.2,2.8v34.5
			c0,1.1,0.4,2,1.2,2.8c0.8,0.8,1.7,1.2,2.8,1.2h35.5c1.2,0,2.1-0.4,2.9-1.2c0.7-0.8,1.1-1.7,1.1-2.8V308c0-1.1-0.4-2-1.1-2.8
			c-0.8-0.8-1.7-1.2-2.9-1.2H423.3z"/>
		<path d="M526.2,295.6v8.4h-33.3c-1.1,0-2,0.4-2.8,1.2c-0.8,0.8-1.2,1.7-1.2,2.8v46.8h-8.4V308c0-1.7,0.3-3.3,1-4.8
			c0.6-1.5,1.5-2.8,2.7-3.9c1.1-1.1,2.4-2,3.9-2.7c1.5-0.6,3.1-1,4.8-1H526.2z"/>
		<path d="M541.3,304v38.5c0,1.1,0.4,2,1.2,2.8c0.8,0.8,1.7,1.2,2.8,1.2h21.6v8.4h-21.6c-1.8,0-3.4-0.3-4.9-1
			c-1.5-0.6-2.8-1.5-3.9-2.7c-1.1-1.1-2-2.4-2.6-3.9c-0.6-1.5-1-3.1-1-4.8v-66.2h8.4v19.4h25.6v8.4H541.3z"/>
	</g>
	<path class="st0" d="M52.2,113.8c38.9-5,77.8-6,116.6-7c19.4-0.5,38.9-0.8,58.3-0.9c19.4-0.2,38.9-0.1,58.3,0.2
		c5.6,0.1,10.1,4.7,10,10.3c-0.1,5.5-4.5,9.9-10,10c-19.4,0.4-38.9,0.5-58.3,0.2c-19.4-0.1-38.9-0.4-58.3-0.9
		c-38.9-1-77.8-2-116.6-7c-1.4-0.2-2.4-1.4-2.2-2.8C50.2,114.8,51.1,113.9,52.2,113.8z"/>
	<path class="st0" d="M177.9,70.2c24.8-15.2,50-29.5,75.9-42.9c6.5-3.3,13-6.6,19.7-9.8c6.7-3.2,13.3-6.3,20.6-9
		c7.3-2.6,14.3-4.6,21.9-6.3c7.6-1.6,15.5-2.5,23.4-2.2c15.9,0.5,30.9,5.1,44.5,11.1c13.9,6.1,26,13.7,38.8,20.7
		c25.3,14.1,50.5,28.5,75.6,43c1.2,0.7,1.6,2.2,0.9,3.4c-0.7,1.1-2.1,1.5-3.2,1l-0.1,0c-26.2-12.3-52.3-24.7-78.3-37.4
		c-13-6.2-26-13.1-38.9-18.1c-13-5.1-26.3-8.5-39.5-8.3c-13.1,0-26.2,4.1-39.2,9.1c-12.5,5-25.4,12-38,18.6L185.8,84l0,0
		c-3.9,2.1-8.7,0.6-10.8-3.3C173,77,174.3,72.4,177.9,70.2z"/>
</g>
</svg>
