<?xml version="1.0" encoding="utf-8"?>
<svg width="20" height="18" viewBox="0 0 20 20" fill="none" xmlns="http://www.w3.org/2000/svg">
  <path d="M 19.086 9.828 L 15.313 8.414 L 15.313 4.176 C 15.313 3.59 14.949 3.067 14.398 2.86 L 10.492 1.395 C 10.176 1.274 9.824 1.274 9.504 1.395 L 5.598 2.86 C 5.047 3.067 4.684 3.59 4.684 4.176 L 4.684 8.414 L 0.91 9.828 C 0.363 10.035 0 10.559 0 11.145 L 0 15.446 C 0 15.977 0.301 16.465 0.777 16.703 L 4.684 18.657 C 5.078 18.856 5.547 18.856 5.941 18.657 L 10 16.625 L 14.059 18.657 C 14.453 18.856 14.922 18.856 15.316 18.657 L 19.223 16.703 C 19.699 16.465 20 15.977 20 15.446 L 20 11.145 C 20 10.559 19.637 10.035 19.086 9.828 Z M 13.984 8.446 L 10.664 9.692 L 10.664 7.028 L 13.984 5.582 L 13.984 8.446 Z M 6.016 4.121 L 10 2.629 L 13.984 4.121 L 13.984 4.145 L 10 5.762 L 6.016 4.145 L 6.016 4.121 Z M 9.297 15.492 L 5.977 17.153 L 5.977 14.063 L 9.297 12.547 L 9.297 15.492 Z M 9.297 11.117 L 5.313 12.735 L 1.328 11.117 L 1.328 11.094 L 5.313 9.602 L 9.297 11.094 L 9.297 11.117 Z M 18.672 15.492 L 15.352 17.153 L 15.352 14.063 L 18.672 12.547 L 18.672 15.492 Z M 18.672 11.117 L 14.688 12.735 L 10.703 11.117 L 10.703 11.094 L 14.688 9.602 L 18.672 11.094 L 18.672 11.117 Z" />
</svg>