<svg width="20" height="18" viewBox="0 0 20 18" fill="none" xmlns="http://www.w3.org/2000/svg">
<path d="M0.487793 9.06623L6.59883 15.1753C7.64779 16.2242 9.44397 15.4773 9.44397 13.9968V11.2787C14.5339 11.5753 14.9485 13.0217 14.103 15.719C13.629 17.2315 15.3207 18.4582 16.6096 17.6099C18.6794 16.2477 19.9995 14.1308 19.9995 11.57C19.9995 5.65442 14.2342 4.72456 9.44397 4.58047V1.77828C9.44397 0.294948 7.6457 -0.447065 6.59883 0.599809L0.487793 6.70928C-0.163249 7.35998 -0.163249 8.41553 0.487793 9.06623ZM1.66619 7.88776L7.7773 1.77665V6.22213C12.7489 6.24401 18.3328 6.63109 18.3328 11.57C18.3328 13.895 16.944 15.3878 15.6933 16.2107C17.4106 10.7319 13.4898 9.6197 7.7773 9.55755V13.9989L1.66619 7.88776Z" fill="#979797"/>
</svg>
