<svg width="16" height="15" viewBox="0 0 16 15" fill="none" xmlns="http://www.w3.org/2000/svg">
<path d="M15.6094 4.77923L11.6094 0.780122C10.7757 -0.0535997 9.33333 0.530261 9.33333 1.7229V3.31173C8.15417 3.36396 6.99917 3.49368 5.97889 3.81146C5.00194 4.11562 4.22694 4.57757 3.67583 5.18423C3.00611 5.92201 2.66667 6.84979 2.66667 7.94257C2.66667 9.65637 3.58828 11.0663 5.02417 11.9637C6.06711 12.6167 7.39217 11.6123 6.99694 10.4153C6.56597 9.10648 6.52039 8.44526 9.33333 8.22757V9.72201C9.33333 10.9163 10.7769 11.4974 11.6094 10.6648L15.6094 6.66479C16.1302 6.14423 16.1302 5.29979 15.6094 4.77923ZM10.6667 9.72201V6.83757C7.09192 6.89096 4.62478 7.48173 5.73083 10.8331C4.91083 10.3206 4 9.3909 4 7.94257C4 4.90551 7.58722 4.63848 10.6667 4.6134V1.72201L14.6667 5.72201L10.6667 9.72201ZM11.3539 12.069C11.5592 12.0104 11.7553 11.9234 11.9365 11.8106C12.1581 11.6731 12.4444 11.8336 12.4444 12.0943V13.2776C12.4444 14.014 11.8475 14.6109 11.1111 14.6109H1.33333C0.596944 14.6109 0 14.014 0 13.2776V3.49979C0 2.7634 0.596944 2.16646 1.33333 2.16646H5C5.18408 2.16646 5.33333 2.31571 5.33333 2.49979V2.6244C5.33333 2.76098 5.25036 2.88465 5.12308 2.93418C4.74247 3.08226 4.38986 3.25465 4.06614 3.45043C4.01359 3.4825 3.95326 3.49957 3.89169 3.49979H1.5C1.4558 3.49979 1.4134 3.51735 1.38215 3.5486C1.35089 3.57986 1.33333 3.62225 1.33333 3.66646V13.1109C1.33333 13.1551 1.35089 13.1975 1.38215 13.2288C1.4134 13.26 1.4558 13.2776 1.5 13.2776H10.9444C10.9886 13.2776 11.031 13.26 11.0623 13.2288C11.0936 13.1975 11.1111 13.1551 11.1111 13.1109V12.3896C11.1111 12.2405 11.2105 12.1102 11.3539 12.069Z" fill="#979797"/>
</svg>
