<svg width="14" height="17" viewBox="0 0 14 17" fill="none" xmlns="http://www.w3.org/2000/svg">
<path d="M13.5 3H10.925L9.8625 1.22813C9.7291 1.00585 9.54038 0.821943 9.31474 0.694333C9.08909 0.566723 8.83423 0.499769 8.575 0.500001H5.425C5.16577 0.499769 4.91091 0.566723 4.68526 0.694333C4.45962 0.821943 4.27089 1.00585 4.1375 1.22813L3.075 3H0.5C0.367392 3 0.240215 3.05268 0.146447 3.14645C0.0526784 3.24022 0 3.36739 0 3.5L0 4C0 4.13261 0.0526784 4.25979 0.146447 4.35355C0.240215 4.44732 0.367392 4.5 0.5 4.5H1L1.6625 15.0938C1.68635 15.4746 1.85443 15.832 2.13252 16.0932C2.41061 16.3545 2.77781 16.5 3.15937 16.5H10.8406C11.2222 16.5 11.5894 16.3545 11.8675 16.0932C12.1456 15.832 12.3137 15.4746 12.3375 15.0938L13 4.5H13.5C13.6326 4.5 13.7598 4.44732 13.8536 4.35355C13.9473 4.25979 14 4.13261 14 4V3.5C14 3.36739 13.9473 3.24022 13.8536 3.14645C13.7598 3.05268 13.6326 3 13.5 3ZM5.425 2H8.575L9.175 3H4.825L5.425 2ZM10.8406 15H3.15969L2.50344 4.5H11.4972L10.8406 15Z" fill="#979797"/>
</svg>
